<svg width="52" height="52" xmlns="http://www.w3.org/2000/svg"><g fill="none" fill-rule="evenodd"><circle stroke-opacity=".2" stroke="#814C9E" stroke-width="2" fill="#FFF" cx="26" cy="26" r="25"/><g fill="#814C9E" fill-rule="nonzero"><path d="M32.736 17.783a.739.739 0 0 0 1.047 0 .74.74 0 0 0 0-1.048l-2.518-2.518a.74.74 0 0 0-1.048 1.048l2.519 2.518zM34.212 36c.435 0 .788-.337.788-.752v-6.39c0-3.289-1.643-5.059-3.021-5.965a7.86 7.86 0 0 0-1.785-.865l2.232-2.13a.728.728 0 0 0 0-1.062l-3.79-3.616a.809.809 0 0 0-.558-.22c-.209 0-.41.08-.557.22l-7.582 7.23a.728.728 0 0 0 0 1.064l.072.069-.917.874a.727.727 0 0 0 0 1.063l2.533 2.416c.148.141.349.22.558.22.209 0 .41-.079.557-.22l.917-.874.07.068c.155.146.356.22.558.22a.806.806 0 0 0 .558-.22l1.973-1.882h.506c.017.001 1.787-.016 2.928 1.055.672.631 1.013 1.54 1.013 2.704v5.49h-4.306v-1.805c0-.415-.353-.752-.789-.752h-9.382c-.435 0-.788.337-.788.752v2.556c0 .415.353.752.788.752h17.424zm-12.027-9.659l-1.419-1.352.36-.343 1.418 1.353-.36.342zm2.102-.806l-2.676-2.552 6.467-6.168 2.676 2.552-6.467 6.168zm-6.71 7.909h7.805v1.052h-7.805v-1.052zm15.846 1.052h-.581v-5.49c0-1.588-.504-2.862-1.497-3.786-.97-.904-2.19-1.255-3.04-1.391l.616-.587a6.377 6.377 0 0 1 2.163.889c1.552 1.02 2.34 2.61 2.34 4.726v5.64z"/></g></g></svg>