<?xml version="1.0" encoding="UTF-8"?>
<svg width="52px" height="52px" viewBox="0 0 52 52" version="1.1" xmlns="http://www.w3.org/2000/svg" xmlns:xlink="http://www.w3.org/1999/xlink">
    <!-- Generator: Sketch 53.2 (72643) - https://sketchapp.com -->
    <title>Ambulatory care</title>
    <desc>Created with Sketch.</desc>
    <g id="Page-1" stroke="none" stroke-width="1" fill="none" fill-rule="evenodd">
        <g id="Icons" transform="translate(-396.000000, -359.000000)">
            <g id="Ambulatory-care" transform="translate(396.000000, 359.000000)">
                <circle id="Oval-3-Copy-7" stroke-opacity="0.2" stroke="#814C9E" stroke-width="2" fill="#FFFFFF" cx="26" cy="26" r="25"></circle>
                <path d="M41.963654,28.2500276 C41.74197,26.6905963 40.5354265,25.4655283 38.9995756,25.2404406 L38.9995756,24.317499 C38.9995756,21.7710328 37.0931056,19.6977138 34.7496424,19.6977138 C32.4736782,19.6977138 30.5682082,21.7080819 30.4997092,24.1794131 L30.5287088,24.1794131 L30.4997092,24.1844898 L30.4997092,34.1891168 C30.4997092,37.3874296 28.1447462,39.9846626 25.2497917,39.9846626 C22.3548372,39.9846626 19.9998743,37.3838759 19.9998743,34.1891168 L19.9998743,33.3225263 C20.7248629,33.3225263 21.4998507,32.7889665 21.4998507,31.2918515 L21.4998507,30.0150647 C24.7088002,29.1819804 26.9997642,26.3842182 26.9997642,23.2123042 L26.9997642,22.153815 L25.99978,22.153815 L25.9787803,15.5465069 C25.9715304,14.3234695 25.107169,13.279195 23.9218126,13.0614686 C23.6661291,12.2661421 22.8238299,11.8318316 22.0404672,12.0915041 C21.257167,12.3511132 20.8294237,13.2063446 21.0851697,14.0017345 C21.3408532,14.797061 22.1831524,15.2313715 22.9665151,14.971699 C23.385946,14.8326612 23.7232532,14.5122588 23.8878132,14.0966051 C24.5283656,14.2816503 24.9721086,14.8733382 24.977296,15.5495529 L24.9997957,22.153815 L23.9998114,22.153815 L23.9998114,23.2270266 C23.959937,24.9928887 22.7939553,26.5274443 21.1218566,27.0147427 C20.2271832,27.3029716 19.2665733,27.3029716 18.3718998,27.0147427 C16.7017386,26.5257943 15.5383819,24.9914926 15.499945,23.2270266 L15.499945,22.153815 L13.9999686,22.153815 L13.9999686,15.5541219 C14.0028435,14.8679442 14.4573364,14.2683875 15.1099511,14.0900054 C15.4142588,14.8765746 16.2889326,15.263672 17.0636079,14.9546921 C17.8382832,14.6457122 18.2195272,13.7575459 17.9152195,12.9710401 C17.6109118,12.1845344 16.7361756,11.7973736 15.9615627,12.1063534 C15.5418193,12.2738206 15.2179494,12.6232871 15.0789516,13.0589303 C13.8806579,13.2668206 13.0032967,14.3197889 12.9999843,15.5541219 L12.9999843,22.153815 L12,22.153815 L12,23.2097659 C12,26.3852336 14.292464,29.1840111 17.4999136,30.0150647 L17.4999136,31.2918515 C17.4999136,32.7889665 18.2749014,33.3225263 18.99989,33.3225263 L18.99989,34.1891168 C18.99989,37.9458651 21.8033459,41 25.2497917,41 C28.6962376,41 31.4996935,37.9423114 31.4996935,34.1891168 L31.4996935,24.2088579 C31.5496927,22.2822552 33.0086698,20.7145742 34.7496424,20.7145742 C36.5416143,20.7145742 37.9995914,22.3309913 37.9995914,24.319022 L37.9995914,25.2404406 C36.0864339,25.5208007 34.7593923,27.3228342 35.0355129,29.265365 C35.3116336,31.2078958 37.0864182,32.555312 38.9995756,32.2749519 C40.9127331,31.9945919 42.2397747,30.1924949 41.963654,28.2500276 Z M22.499835,14.0311158 C22.2237143,14.0311158 21.9998428,13.8038072 21.9998428,13.5234471 C21.9998428,13.2430871 22.2237143,13.0157784 22.499835,13.0157784 C22.7759556,13.0157784 22.9998271,13.2430871 22.9998271,13.5234471 C22.9998271,13.8038072 22.7759556,14.0311158 22.499835,14.0311158 Z M16.4999293,13.0157784 C16.7760499,13.0157784 16.9999214,13.2430871 16.9999214,13.5234471 C16.9999214,13.8038072 16.7760499,14.0311158 16.4999293,14.0311158 C16.2238086,14.0311158 15.9999371,13.8038072 15.9999371,13.5234471 C15.9999371,13.2430871 16.2238086,13.0157784 16.4999293,13.0157784 Z M12.9999843,23.2097659 L12.9999843,23.1691524 L14.4999607,23.1691524 L14.4999607,23.2270266 C14.5374601,25.4335451 15.9832499,27.359196 18.0689046,27.9803286 C19.1618249,28.3316988 20.3349315,28.3316988 21.4278518,27.9803286 C23.5145065,27.3600209 24.9616088,25.4343066 24.9997957,23.2270266 L24.9997957,23.1691524 L25.99978,23.1691524 L25.99978,23.2097659 C25.99978,26.0339268 23.8558137,28.5189651 20.8998601,29.1200448 C20.205746,29.2611767 19.4947572,29.2965866 18.7903933,29.2251322 C18.5585219,29.2022872 18.3280255,29.1668773 18.0999041,29.1190295 C15.1439506,28.5189651 12.9999843,26.0339268 12.9999843,23.2097659 Z M18.99989,32.09261 C18.5498971,32.09261 18.4998978,31.7215149 18.4998978,31.5624741 L18.4998978,31 C18.5398972,31.0026507 18.5808966,31.003711 18.6213959,31.0058315 C18.6713951,31.0087472 18.7213944,31.0108678 18.7713936,31.0132534 C19.0078899,31.0243862 19.2463861,31.0318082 19.4868823,31.0320732 L19.5118819,31.0320732 C19.7518782,31.0320732 19.9898744,31.0243862 20.2248707,31.0132534 C20.2748699,31.0108678 20.3278691,31.0087472 20.3793683,31.0058315 C20.4188677,31.0034459 20.459867,31.0026507 20.4993664,31 L20.4993664,31.5624741 C20.4993664,31.7215149 20.4493672,32.09261 19.9993743,32.09261 L18.99989,32.09261 Z M38.5,30.8 C37.39545,30.8 36.5,29.90455 36.5,28.8 C36.5,27.69545 37.39545,26.8 38.5,26.8 C39.60455,26.8 40.5,27.69545 40.5,28.8 C40.4987,29.90405 39.604,30.7987 38.5,30.8 Z" id="Shape" fill="#814C9E" fill-rule="nonzero"></path>
            </g>
        </g>
    </g>
</svg>