<?xml version="1.0" encoding="UTF-8"?>
<svg width="52px" height="52px" viewBox="0 0 52 52" version="1.1" xmlns="http://www.w3.org/2000/svg" xmlns:xlink="http://www.w3.org/1999/xlink">
    <!-- Generator: Sketch 53.1 (72631) - https://sketchapp.com -->
    <title>Включена телемедицина V2</title>
    <desc>Created with Sketch.</desc>
    <g id="Page-1" stroke="none" stroke-width="1" fill="none" fill-rule="evenodd">
        <g id="Icons" transform="translate(-572.000000, -53.000000)">
            <g id="Включена-телемедицина-V2" transform="translate(598.000000, 79.000000) scale(-1, 1) translate(-598.000000, -79.000000) translate(572.000000, 53.000000)">
                <g id="phone" transform="translate(17.000000, 10.000000)" fill-rule="nonzero">
                    <path d="M6.84999355,21 L10.1500064,21 C10.4535818,21 10.6999871,20.7535947 10.6999871,20.4500193 L10.6999871,17.6999871 L13.4500193,17.6999871 C13.7535947,17.6999871 14,17.4535818 14,17.1500064 L14,13.8499936 C14,13.5464182 13.7535947,13.3000129 13.4500193,13.3000129 L10.6999871,13.3000129 L10.6999871,10.5499807 C10.6999871,10.2464053 10.4535818,10 10.1500064,10 L6.84999355,10 C6.54641815,10 6.30001289,10.2464053 6.30001289,10.5499807 L6.30001289,13.3000129 L3.54998066,13.3000129 C3.24640526,13.3000129 3,13.5464182 3,13.8499936 L3,17.1500064 C3,17.4535818 3.24640526,17.6999871 3.54998066,17.6999871 L6.30001289,17.6999871 L6.30001289,20.4500193 C6.30001289,20.7535947 6.54641815,21 6.84999355,21 Z" id="Shape" stroke="#814C9E"></path>
                    <path d="M10.5000146,2 L5.49998535,2 C5.22400609,2 5,2.22401266 5,2.5 C5,2.77598734 5.22400609,3 5.49998535,3 L10.5000146,3 C10.7759939,3 11,2.77598734 11,2.5 C11,2.22401266 10.7759939,2 10.5000146,2 Z" id="Path" fill="#814C9E"></path>
                    <path d="M8.62098263,26 L7.37948613,26 C6.61899042,26 6,26.6189844 6,27.3794727 L6,27.6209961 C6,28.3814844 6.61899042,29 7.37901737,29 L8.62051387,29 C9.38100958,29 10,28.3814844 10,27.6209961 L10,27.3794727 C10,26.6189844 9.38100958,26 8.62098263,26 Z M9.0000293,27.6209961 C9.0000293,27.83 8.83004717,27.9999805 8.62104122,27.9999805 L7.37948613,27.9999805 C7.17001143,27.9999805 6.9999707,27.83 6.9999707,27.6209961 L6.9999707,27.3794727 C6.9999707,27.17 7.16995283,26.9999609 7.37948613,26.9999609 L8.62051387,26.9999609 C8.83004717,26.9999609 9.0000293,27.1699414 9.0000293,27.3794727 L9.0000293,27.6209961 L9.0000293,27.6209961 Z" id="Shape" fill="#814C9E"></path>
                    <path d="M15.1930253,0 L1.80750208,0 C0.810997026,0 0,0.838029297 0,1.86775 L0,29.13225 C0,30.1619707 0.810997026,31 1.80750208,31 L15.1924979,31 C16.189003,31 17,30.1619707 17,29.1327949 L17,1.86775 C17.0000586,0.838029297 16.1890616,0 15.1930253,0 Z M16.0000379,29.13225 C16.0000379,29.5921035 15.6380453,29.9666465 15.1930253,29.9666465 L1.80750208,29.9666465 C1.36201328,29.9666465 1.00002068,29.592043 1.00002068,29.1327344 L1.00002068,1.86775 C1.00002068,1.40789648 1.36201328,1.03335352 1.80750208,1.03335352 L15.1924979,1.03335352 C15.6379867,1.03335352 15.9999793,1.40795703 15.9999793,1.86775 L15.9999793,29.13225 L16.0000379,29.13225 Z" id="Shape" fill="#814C9E"></path>
                    <path d="M16.4999604,4 L0.499981043,4 C0.224004164,4 0,4.2240043 0,4.49998136 L0,25.5000186 C0,25.7759957 0.224004164,26 0.499981043,26 L16.500019,26 C16.7759958,26 17,25.7759957 17,25.5000186 L17,4.49998136 C17,4.2240043 16.7759958,4 16.4999604,4 Z M15.9999793,25.0000373 L0.999962086,25.0000373 L0.999962086,5.00002131 L15.9999793,5.00002131 L15.9999793,25.0000373 Z" id="Shape" fill="#814C9E"></path>
                </g>
                <circle id="Oval-3-Copy-17" stroke-opacity="0.2" stroke="#814C9E" stroke-width="2" cx="26" cy="26" r="25"></circle>
            </g>
        </g>
    </g>
</svg>