<?xml version="1.0" encoding="UTF-8"?>
<svg width="54px" height="54px" viewBox="0 0 54 54" version="1.1" xmlns="http://www.w3.org/2000/svg" xmlns:xlink="http://www.w3.org/1999/xlink">
    <!-- Generator: Sketch 53.1 (72631) - https://sketchapp.com -->
    <title>риск отмены рейса</title>
    <desc>Created with Sketch.</desc>
    <g id="Page-1" stroke="none" stroke-width="1" fill="none" fill-rule="evenodd">
        <g id="Иконки(true)" transform="translate(-653.000000, -642.000000)" stroke="#814C9E">
            <g id="Страхование-путешественников" transform="translate(45.000000, 556.000000)">
                <g id="риск-отмены-рейса" transform="translate(609.000000, 87.000000)">
                    <circle id="Oval-3-Copy-15" stroke-opacity="0.2" stroke-width="2" fill-rule="nonzero" cx="26" cy="26" r="26"></circle>
                    <g id="landing" transform="translate(7.000000, 7.000000)" stroke-linecap="round" stroke-linejoin="round">
                        <path d="M31.7549704,24.4498382 L24.3669567,21.3980583 L18.1104406,10.2330097 C17.7110885,9.5631068 17.178619,9.0420712 16.5130322,8.74433657 L14.6493891,8 L16.978943,18.3462783 L8.32631433,14.7734628 L7.39449278,12.2427184 C7.06169937,11.3495146 6.39611255,10.605178 5.53084969,10.2330097 L4,9.5631068 L4.79870418,17.0809061 L13.9838023,23.0355987 L33.2192614,31 L33.8182895,29.2135922 C34.4173177,27.3527508 33.4854961,25.1197411 31.7549704,24.4498382 Z" id="Shape" transform="translate(19.000000, 19.500000) rotate(-45.000000) translate(-19.000000, -19.500000) "></path>
                    </g>
                </g>
            </g>
        </g>
    </g>
</svg>