<?xml version="1.0" encoding="UTF-8"?>
<svg width="52px" height="52px" viewBox="0 0 52 52" version="1.1" xmlns="http://www.w3.org/2000/svg" xmlns:xlink="http://www.w3.org/1999/xlink">
    <!-- Generator: Sketch 53.1 (72631) - https://sketchapp.com -->
    <title>лучший сервис(новый)</title>
    <desc>Created with Sketch.</desc>
    <g id="Page-1" stroke="none" stroke-width="1" fill="none" fill-rule="evenodd">
        <g id="Иконки(true)" transform="translate(-831.000000, -643.000000)" stroke="#814C9E">
            <g id="Страхование-путешественников" transform="translate(45.000000, 556.000000)">
                <g id="лучший-сервис(новый)" transform="translate(786.000000, 87.000000)">
                    <circle id="Oval-3-Copy" stroke-opacity="0.2" stroke-width="2" fill="#FFFFFF" cx="26" cy="26" r="25"></circle>
                    <g id="Group-33" transform="translate(13.000000, 15.000000)" stroke-linecap="round" stroke-linejoin="round">
                        <polyline id="Stroke-1" points="12.8076 3.0699 8.9396 3.0699 8.9396 5.1429 8.9396 7.2169"></polyline>
                        <g id="Group-32" transform="translate(0.000000, 0.914600)">
                            <path d="M7.7031,0.959 C8.5461,0.081 8.8621,0.996 8.9271,1.228 C8.9341,1.259 8.9391,1.29 8.9391,1.321 L8.9391,4.229 C8.9391,6.117 3.4481,5.69 2.4681,5.6 C2.4031,5.594 2.3581,5.662 2.3901,5.719 C2.7111,6.314 4.0941,8.695 5.6291,8.695" id="Stroke-2"></path>
                            <polyline id="Stroke-4" points="12.8076 8.6953 10.4946 8.6953 10.4946 11.6063 12.7676 11.6063"></polyline>
                            <polyline id="Stroke-6" points="10.4941 11.6064 5.6291 11.6064 5.6291 8.6954 10.4941 8.6954"></polyline>
                            <path d="M12.7676,14.877 L4.4326,14.877 C4.4326,14.877 0.7906,12.891 0.5026,11.744 C0.4876,11.683 0.5466,11.629 0.6066,11.649 C1.2016,11.847 3.8336,12.627 5.6286,11.606" id="Stroke-8"></path>
                            <path d="M12.7676,17.1104 L10.4946,17.1104" id="Stroke-10"></path>
                            <polyline id="Stroke-12" points="12.7676 20.5 10.4946 20.5 10.4946 14.877"></polyline>
                            <path d="M4.4727,14.877 L4.4727,20.419 C4.4727,20.464 4.5087,20.5 4.5537,20.5 L10.4937,20.5" id="Stroke-14"></path>
                            <polyline id="Stroke-16" points="12.8076 2.1553 16.6756 2.1553 16.6756 4.2283 16.6756 6.3023"></polyline>
                            <path d="M17.9121,0.959 C17.0681,0.08 16.7511,0.998 16.6881,1.229 C16.6801,1.259 16.6761,1.29 16.6761,1.321 L16.6761,4.229 C16.6761,6.119 22.1741,5.69 23.1491,5.6 C23.2131,5.594 23.2571,5.66 23.2261,5.717 C22.9071,6.309 21.5231,8.695 19.9861,8.695" id="Stroke-18"></path>
                            <polyline id="Stroke-20" points="12.8076 8.6953 15.1206 8.6953 15.1206 11.6063 12.7676 11.6063"></polyline>
                            <polyline id="Stroke-22" points="15.1201 11.6064 19.9861 11.6064 19.9861 8.6954 15.1201 8.6954"></polyline>
                            <path d="M12.7676,14.877 L21.1826,14.877 C21.1826,14.877 24.8266,12.889 25.1126,11.743 C25.1276,11.682 25.0696,11.629 25.0096,11.648 C24.4176,11.846 21.7826,12.628 19.9866,11.606" id="Stroke-24"></path>
                            <path d="M12.7676,17.1104 L15.1206,17.1104" id="Stroke-26"></path>
                            <polyline id="Stroke-28" points="12.7676 20.5 15.1206 20.5 15.1206 14.877"></polyline>
                            <path d="M21.1426,14.877 L21.1426,20.42 C21.1426,20.464 21.1066,20.5 21.0616,20.5 L15.1206,20.5" id="Stroke-30"></path>
                        </g>
                    </g>
                </g>
            </g>
        </g>
    </g>
</svg>