<?xml version="1.0" encoding="UTF-8"?>
<svg width="52px" height="52px" viewBox="0 0 52 52" version="1.1" xmlns="http://www.w3.org/2000/svg" xmlns:xlink="http://www.w3.org/1999/xlink">
    <!-- Generator: Sketch 53.1 (72631) - https://sketchapp.com -->
    <title>расширенная мед. страховка</title>
    <desc>Created with Sketch.</desc>
    <g id="Page-1" stroke="none" stroke-width="1" fill="none" fill-rule="evenodd">
        <g id="Icons" transform="translate(-500.000000, -489.000000)">
            <g id="расширенная-мед.-страховка" transform="translate(500.000000, 489.000000)">
                <circle id="Oval-3" stroke-opacity="0.2" stroke="#814C9E" stroke-width="2" fill="#FFFFFF" cx="26" cy="26" r="25"></circle>
                <g id="Group-7" transform="translate(14.000000, 15.000000)" stroke="#814C9D">
                    <path d="M19.1143,22.3681 L22.7143,22.3681 C23.0453,22.3681 23.3143,22.0991 23.3143,21.7681 L23.3143,18.7681 L26.3143,18.7681 C26.6453,18.7681 26.9143,18.4991 26.9143,18.1681 L26.9143,14.5681 C26.9143,14.2371 26.6453,13.9681 26.3143,13.9681 L23.3143,13.9681 L23.3143,10.9681 C23.3143,10.6371 23.0453,10.3681 22.7143,10.3681 L19.1143,10.3681 C18.7833,10.3681 18.5133,10.6371 18.5133,10.9681 L18.5133,13.9681 L15.5133,13.9681 C15.1823,13.9681 14.9143,14.2371 14.9143,14.5681 L14.9143,18.1681 C14.9143,18.4991 15.1823,18.7681 15.5133,18.7681 L18.5133,18.7681 L18.5133,21.7681 C18.5133,22.0991 18.7833,22.3681 19.1143,22.3681 Z" id="Stroke-1" stroke-width="1.8"></path>
                    <path d="M12.3877,19.4873 L2.2617,19.4873 C1.0127,19.4873 -0.0003,18.4743 -0.0003,17.2253 L-0.0003,6.5913 C-0.0003,5.3423 1.0127,4.3303 2.2617,4.3303 L18.3877,4.3303 C19.6367,4.3303 20.6487,5.3423 20.6487,6.5913 L20.6487,7.3933" id="Stroke-3" stroke-width="2" stroke-linecap="round" stroke-linejoin="round"></path>
                    <path d="M14.4541,11 L14.4541,2.165 C14.4541,0.969 13.5291,0 12.3901,0 L8.2601,0 C7.1191,0 6.1941,0.969 6.1941,2.165 L6.1941,19.487" id="Stroke-5" stroke-width="2" stroke-linecap="round" stroke-linejoin="round"></path>
                </g>
            </g>
        </g>
    </g>
</svg>