<?xml version="1.0" encoding="UTF-8"?>
<svg width="52px" height="52px" viewBox="0 0 52 52" version="1.1" xmlns="http://www.w3.org/2000/svg" xmlns:xlink="http://www.w3.org/1999/xlink">
    <!-- Generator: Sketch 53.1 (72631) - https://sketchapp.com -->
    <title>широкое базовое покрытие</title>
    <desc>Created with Sketch.</desc>
    <g id="Page-1" stroke="none" stroke-width="1" fill="none" fill-rule="evenodd">
        <g id="Иконки(true)" transform="translate(-880.000000, -880.000000)" stroke="#814C9E">
            <g id="Осаго" transform="translate(44.000000, 392.000000)">
                <g id="широкое-базовое-покрытие" transform="translate(836.000000, 488.000000)">
                    <circle id="Oval-3-Copy" stroke-opacity="0.2" stroke-width="2" fill="#FFFFFF" cx="26" cy="26" r="25"></circle>
                    <g id="Group-13" transform="translate(12.000000, 10.000000)">
                        <path d="M14.5906,21.4805 C15.6726,21.4805 16.5516,20.6005 16.5516,19.5195 C16.5516,18.4375 15.6726,17.5575 14.5906,17.5575 C13.5096,17.5575 12.6296,18.4375 12.6296,19.5195 C12.6296,20.6005 13.5096,21.4805 14.5906,21.4805 Z" id="Stroke-1"></path>
                        <path d="M23.2903,7 C25.0823,7 26.5403,5.542 26.5403,3.75 C26.5403,1.958 25.0823,0.5 23.2903,0.5 C21.4983,0.5 20.0403,1.958 20.0403,3.75 C20.0403,5.542 21.4983,7 23.2903,7 Z" id="Stroke-3"></path>
                        <path d="M28.5559,10.9561 C28.5559,8.9821 26.9499,7.3761 24.9759,7.3761 L21.6049,7.3761 C19.6309,7.3761 18.0249,8.9821 18.0249,10.9561 L18.0249,18.6101 C18.0259,19.2671 18.5599,19.8001 19.2159,19.8001 L20.3139,19.8001 L20.3139,30.0261 C20.3139,30.6831 20.8479,31.2171 21.5039,31.2171 L22.5499,31.2171 C22.8299,31.2171 23.0869,31.1191 23.2899,30.9571 C23.4939,31.1191 23.7509,31.2171 24.0309,31.2171 L25.0769,31.2171 C25.7329,31.2171 26.2669,30.6831 26.2669,30.0261 L26.2669,19.8001 L27.3649,19.8001 C28.0219,19.8001 28.5559,19.2661 28.5559,18.6091 L28.5559,10.9561" id="Stroke-5"></path>
                        <path d="M5.178,9.751 C6.97,9.751 8.428,8.293 8.428,6.501 C8.428,4.709 6.97,3.251 5.178,3.251 C3.386,3.251 1.928,4.709 1.928,6.501 C1.928,8.293 3.386,9.751 5.178,9.751 Z" id="Stroke-7"></path>
                        <path d="M7.8469,27.6318 L7.8469,24.5268 L8.6069,24.5268 C8.7349,24.5268 8.8559,24.4718 8.9419,24.3768 C9.0269,24.2808 9.0679,24.1538 9.0539,24.0278 L8.7429,21.1928 L8.7559,21.1928 C9.3629,21.1928 9.8559,20.6978 9.8559,20.0918 L9.8559,13.3708 C9.8559,11.6088 8.4219,10.1728 6.6579,10.1728 L3.6989,10.1728 C1.9349,10.1728 0.4999,11.6088 0.4999,13.3718 L0.4999,20.0928 C0.4999,20.6988 0.9939,21.1928 1.5999,21.1928 L1.6139,21.1928 L1.3029,24.0278 C1.2879,24.1538 1.3289,24.2808 1.4139,24.3768 C1.4999,24.4718 1.6219,24.5268 1.7499,24.5268 L2.5099,24.5268 L2.5099,30.1158 C2.5099,30.7238 3.0029,31.2168 3.6099,31.2168 L4.5279,31.2168 C4.7709,31.2168 4.9959,31.1368 5.1779,31.0018 C5.3609,31.1368 5.5849,31.2168 5.8279,31.2168 L6.7469,31.2168 C7.3529,31.2168 7.8469,30.7238 7.8469,30.1158 L7.8469,27.6318" id="Stroke-9"></path>
                        <path d="M16.9724,27.5713 L16.9724,24.0873 L18.9184,22.0143 C19.3734,21.5303 19.3484,20.7643 18.8644,20.3093 C18.6294,20.0893 18.3234,19.9733 18.0004,19.9833 C17.6794,19.9943 17.3804,20.1293 17.1594,20.3633 L15.4814,22.1503 L13.7444,22.1503 L12.0664,20.3633 C11.6114,19.8793 10.8464,19.8543 10.3614,20.3093 C9.8764,20.7643 9.8524,21.5303 10.3074,22.0143 L12.2534,24.0873 L12.2534,30.0413 C12.2534,30.6893 12.7814,31.2173 13.4294,31.2173 L15.7964,31.2173 C16.4454,31.2173 16.9724,30.6893 16.9724,30.0413 L16.9724,27.5713" id="Stroke-11"></path>
                    </g>
                </g>
            </g>
        </g>
    </g>
</svg>