<?xml version="1.0" encoding="UTF-8"?>
<svg width="54px" height="54px" viewBox="0 0 54 54" version="1.1" xmlns="http://www.w3.org/2000/svg" xmlns:xlink="http://www.w3.org/1999/xlink">
    <!-- Generator: Sketch 53.1 (72631) - https://sketchapp.com -->
    <title>Включена телемедецина</title>
    <desc>Created with Sketch.</desc>
    <g id="Page-1" stroke="none" stroke-width="1" fill="none" fill-rule="evenodd">
        <g id="Иконки(true)" transform="translate(-44.000000, -642.000000)" fill-rule="nonzero" stroke="#814C9E">
            <g id="Страхование-путешественников" transform="translate(45.000000, 556.000000)">
                <g id="Включена-телемедецина" transform="translate(0.000000, 87.000000)">
                    <circle id="Oval-3-Copy-7" stroke-opacity="0.2" stroke-width="2" cx="26" cy="26" r="26"></circle>
                    <g id="cell" transform="translate(10.999746, 12.000040)">
                        <path d="M23.8952538,29.7309596 C22.6582538,29.7309596 21.1642538,29.4209596 19.5212538,28.8009596 C15.9192538,27.4429596 12.0002538,24.7589596 8.4862538,21.2449596 C4.9712538,17.7299596 2.2872538,13.8099596 0.928253802,10.2079596 C-0.306746198,6.93295961 -0.309746198,4.24495961 0.921253802,3.01495961 C1.0982538,2.83795961 1.2782538,2.64795961 1.4642538,2.45195961 C2.5872538,1.27095961 3.8562538,-0.0580403854 5.5382538,0.0019596146 C6.6972538,0.0499596146 7.8202538,0.769959615 8.9702538,2.20095961 C12.3682538,6.42695961 10.8362538,7.93295961 9.0632538,9.67895961 L8.7502538,9.98895961 C8.4602538,10.2789596 7.9122538,11.6219596 13.0102538,16.7199596 C14.6742538,18.3839596 16.0932538,19.6019596 17.2272538,20.3389596 C17.9412538,20.8029596 19.2182538,21.5049596 19.7422538,20.9809596 L20.0572538,20.6629596 C21.8012538,18.8939596 23.3072538,17.3669596 27.5302538,20.7619596 C28.9612538,21.9119596 29.6802538,23.0339596 29.7282538,24.1949596 C29.7972538,25.8759596 28.4582538,27.1479596 27.2762538,28.2699596 C27.0812538,28.4559596 26.8912538,28.6359596 26.7142538,28.8119596 C26.1032538,29.4239596 25.1262538,29.7309596 23.8952538,29.7309596 Z M5.4182538,0.999959615 C4.2232538,0.999959615 3.1442538,2.13595961 2.1892538,3.14095961 C1.9972538,3.34295961 1.8112538,3.53895961 1.6282538,3.72195961 C0.711253802,4.63795961 0.804253802,7.04495961 1.8642538,9.85595961 C3.1742538,13.3279596 5.7772538,17.1219596 9.1942538,20.5389596 C12.6102538,23.9539596 16.4022538,26.5569596 19.8752538,27.8659596 C22.6862538,28.9279596 25.0932538,29.0179596 26.0082538,28.1029596 C26.1912538,27.9199596 26.3872538,27.7339596 26.5892538,27.5429596 C27.6162538,26.5669596 28.7812538,25.4609596 28.7302538,24.2339596 C28.6952538,23.3909596 28.0812538,22.4839596 26.9052538,21.5389596 C23.3862538,18.7089596 22.4022538,19.7079596 20.7702538,21.3629596 L20.4502538,21.6859596 C19.6702538,22.4669596 18.4032538,22.2939596 16.6832538,21.1759596 C15.4902538,20.3999596 14.0162538,19.1379596 12.3042538,17.4249596 C8.0732538,13.1949596 6.7202538,10.6059596 8.0442538,9.27895961 L8.3632538,8.96395961 C10.0222538,7.33195961 11.0232538,6.34695961 8.1922538,2.82595961 C7.2452538,1.65095961 6.3392538,1.03695961 5.4962538,1.00095961 C5.4702538,0.999959615 5.4442538,0.999959615 5.4182538,0.999959615 Z" id="Shape"></path>
                        <path d="M19.2002468,14.9999596 L22.8002608,14.9999596 C23.131434,14.9999596 23.4002397,14.7311539 23.4002397,14.3999807 L23.4002397,11.3999456 L26.4002749,11.3999456 C26.7314481,11.3999456 27.0002538,11.1311398 27.0002538,10.7999666 L27.0002538,7.19995258 C27.0002538,6.86877941 26.7314481,6.59997368 26.4002749,6.59997368 L23.4002397,6.59997368 L23.4002397,3.59993852 C23.4002397,3.26876535 23.131434,2.99995961 22.8002608,2.99995961 L19.2002468,2.99995961 C18.8690736,2.99995961 18.6002679,3.26876535 18.6002679,3.59993852 L18.6002679,6.59997368 L15.6002327,6.59997368 C15.2690595,6.59997368 15.0002538,6.86877941 15.0002538,7.19995258 L15.0002538,10.7999666 C15.0002538,11.1311398 15.2690595,11.3999456 15.6002327,11.3999456 L18.6002679,11.3999456 L18.6002679,14.3999807 C18.6002679,14.7311539 18.8690736,14.9999596 19.2002468,14.9999596 Z" id="Shape" stroke-width="2"></path>
                    </g>
                </g>
            </g>
        </g>
    </g>
</svg>