<svg xmlns="http://www.w3.org/2000/svg" width="48" height="48" viewBox="0 0 48 48">
  <g fill="none" fill-rule="evenodd">
    <rect width="48" height="48" fill="#CBD4E5" rx="24"/>
    <g stroke="#5272AA" stroke-linecap="round" stroke-linejoin="round" stroke-width="2" transform="translate(15 17)">
      <path d="M17,12.7719298 C17,13.1621832 16.6869565,13.4814815 16.3043478,13.4814815 L14.8086956,13.4814815 C14.4608696,13.4814815 14.1826087,13.2331384 14.1130434,12.8783626 L13.8695652,11.3528266 L4.1304348,11.3528266 L3.88695656,12.8783626 C3.81739129,13.2331384 3.53913041,13.4814815 3.19130435,13.4814815 L1.69565218,13.4814815 C1.31304348,13.4814815 1,13.1621832 1,12.7719298 L1,8.97582852 C1,8.19532163 1.24347826,7.45029238 1.69565218,6.84717343 L3.08695652,4.96686155 L3.99130436,2.1641326 C4.30434788,1.20623778 5.10434786,0.46120858 6.07826093,0.283820658 C6.87826091,0.141910335 7.8869565,0 9,0 C10.1130435,0 11.1217391,0.141910335 11.8869566,0.283820658 C12.8608696,0.46120858 13.6608696,1.20623778 13.973913,2.1641326 L14.9130434,4.96686155 L16.3043478,6.84717343 C16.7565218,7.45029238 17,8.19532163 17,8.97582852 L17,12.7719298 Z"/>
      <path d="M15.3217392 4.2300195L16.6086956 4.2300195C17.0956522 4.2300195 17.4782609 4.62027288 17.4782609 5.11695905 17.4782609 5.61364522 17.0956522 6.0038986 16.6086956 6.0038986L15.9130434 6.0038986M2.67826087 4.2300195L1.39130435 4.2300195C.904347821 4.2300195.521739135 4.62027288.521739135 5.11695905.521739135 5.61364522.904347821 6.0038986 1.39130435 6.0038986L2.08695652 6.0038986M2.2173913 8.29629628L5.21739135 8.29629628M13.2173913 8.29629628L16.2173913 8.29629628"/>
    </g>
  </g>
</svg>
