<svg xmlns="http://www.w3.org/2000/svg" width="48" height="48" viewBox="0 0 48 48">
  <g fill="none" fill-rule="evenodd">
    <rect width="48" height="48" fill="#DBCFE0" rx="24"/>
    <g stroke="#744589" stroke-width="2" transform="translate(17 16)">
      <path d="M2.33333333,2.93877551 L6.97213243,2.93877551 C7.27082133,2.93877551 7.55813399,3.0509976 7.77487684,3.25232122 L10.6360777,5.90997443 C10.8684141,6.12578222 11,6.42564213 11,6.73928586 L11,13.3877551 C11,14.6501202 9.95533109,15.6734694 8.66666667,15.6734694 L2.33333333,15.6734694 C1.04466892,15.6734694 4.67935729e-17,14.6501202 -1.11022303e-16,13.3877551 L-8.8817842e-16,5.22448979 C-1.0459943e-15,3.96212465 1.04466892,2.93877551 2.33333333,2.93877551 Z"/>
      <path fill="#DBCFE0" fill-rule="nonzero" d="M5.33333333,8.18892942e-16 L9.97213243,1.52259158e-15 C10.2708213,1.2089681e-15 10.558134,0.112222084 10.7748768,0.313545712 L13.6360777,2.97119891 C13.8684141,3.18700671 14,3.48686662 14,3.80051035 L14,10.4489796 C14,11.7113447 12.9553311,12.7346938 11.6666667,12.7346938 L5.33333333,12.7346938 C4.04466891,12.7346938 3,11.7113447 3,10.4489796 L3,2.28571429 C3,1.02334914 4.04466891,2.31892714e-16 5.33333333,8.18892942e-16 Z"/>
      <path stroke-linecap="square" d="M9.95819092,0.489795919 L9.95819092,2.31214073 C9.95819092,2.93157473 10.4619482,3.43825163 11.0940668,3.45459978 L13.3773803,3.51365194"/>
    </g>
  </g>
</svg>
