<svg xmlns="http://www.w3.org/2000/svg" width="48" height="48" viewBox="0 0 48 48">
  <g fill="none" fill-rule="evenodd">
    <rect width="48" height="48" fill="#E1F0DB" rx="24"/>
    <path stroke="#7EBD1B" stroke-width="2" d="M21.8999918,31 L26.1000082,31 C26.4863769,31 26.7999836,30.6863933 26.7999836,30.3000247 L26.7999836,26.7999836 L30.3000247,26.7999836 C30.6863933,26.7999836 31,26.4863769 31,26.1000082 L31,21.8999918 C31,21.5136231 30.6863933,21.2000164 30.3000247,21.2000164 L26.7999836,21.2000164 L26.7999836,17.6999754 C26.7999836,17.3136067 26.4863769,17 26.1000082,17 L21.8999918,17 C21.5136231,17 21.2000164,17.3136067 21.2000164,17.6999754 L21.2000164,21.2000164 L17.6999754,21.2000164 C17.3136067,21.2000164 17,21.5136231 17,21.8999918 L17,26.1000082 C17,26.4863769 17.3136067,26.7999836 17.6999754,26.7999836 L21.2000164,26.7999836 L21.2000164,30.3000247 C21.2000164,30.6863933 21.5136231,31 21.8999918,31 Z"/>
  </g>
</svg>
