<?xml version="1.0" encoding="UTF-8"?>
<!DOCTYPE svg PUBLIC "-//W3C//DTD SVG 1.1//EN" "http://www.w3.org/Graphics/SVG/1.1/DTD/svg11.dtd">
<!-- Creator: CorelDRAW X8 -->
<svg xmlns="http://www.w3.org/2000/svg" xml:space="preserve" width="241px" height="239px" version="1.1" shape-rendering="geometricPrecision" text-rendering="geometricPrecision" image-rendering="optimizeQuality" fill-rule="evenodd" clip-rule="evenodd"
viewBox="0 0 7226836 7146154"
 xmlns:xlink="http://www.w3.org/1999/xlink">
 <g id="Слой_x0020_1">
  <metadata id="CorelCorpID_0Corel-Layer"/>
  <path fill="#F26123" fill-rule="nonzero" d="M2442705 5078163c0,-242048 0,-482114 0,-726038 -353058,0 -714821,-7856 -1076088,3362 -185641,5733 -323474,179873 -321599,366009 1982,185146 145795,353943 331189,358578 352314,8599 704983,2477 1057509,2230 4247,0 8352,-3751 8989,-4141zm380023 1022477c-111505,-243110 -221489,-482929 -336072,-732691 3998,141 -12244,-1522 -28487,-1522 -345768,-106 -691465,-884 -1037268,248 -212465,779 -376024,161932 -375883,366894 142,204998 163277,364912 376024,366753 136453,1132 272871,318 409217,318 333807,0 667614,0 992469,0zm37545 -2766214c885,177 -12456,-1097 -25832,-1097 -472384,-177 -944767,-991 -1417044,354 -208076,495 -370503,161047 -372379,362647 -1734,205246 160658,368310 371636,370787 129199,1486 258433,248 387631,248 239571,0 479142,0 696455,0 123466,-251285 240703,-490466 359533,-732939zm2115515 -1002943c496,-1345 885,-2619 1381,-3751 -48056,-3751 -96360,-10475 -144557,-10581 -632935,-778 -1265869,-531 -1898804,-531 -503453,0 -1006942,-354 -1510395,283 -174282,248 -315866,103260 -362789,260415 -71411,238651 103507,472241 358401,473020 543547,1592 1086987,-283 1630640,1592 55417,248 95369,-14367 136559,-52939 344707,-323333 748545,-535302 1215939,-612304 189144,-31212 382252,-37581 573625,-55204zm-937795 -297217c574015,0 1148031,354 1722046,-247 178386,-284 320713,-104110 366894,-264166 69040,-239323 -107011,-468986 -363179,-469410 -658626,-1133 -1317393,-496 -1976160,-496 -486892,0 -973996,-354 -1460994,354 -176901,283 -319334,106409 -364028,267562 -65785,237448 108108,465129 360418,465872 571644,1522 1143253,531 1715003,531zm-1657216 -1016531c571644,0 1143289,460 1715039,-319 222585,-318 388374,-170000 379492,-384446 -8352,-200291 -171876,-349200 -386357,-349307 -1138653,-389 -2277305,-141 -3415958,-141 -14084,0 -28345,-106 -42323,637 -156907,7820 -293218,117591 -334550,268765 -64794,237696 109594,463678 362541,464244 573874,1416 1147995,567 1722116,567zm4565828 3727612c142,-1167847 -951773,-2118983 -2119478,-2117992 -1165016,1026 -2113887,948907 -2116152,2113994 -2230,1167245 948270,2120398 2115763,2121672 1167351,1062 2119867,-950287 2119867,-2117674zm-6946605 -4179577c11218,-40200 20737,-81143 33972,-120706 86380,-259281 328428,-442198 602218,-442693 1162115,-2229 2324477,-4247 3486839,743 480982,2017 782976,522067 560532,948659 -9483,18331 -19746,36343 -35847,65962 33229,0 57823,0 82275,0 350545,0 701091,-1911 1051742,707 274534,2088 511734,174282 603493,430698 92006,257300 16207,538061 -194382,715174 -115716,97244 -250046,148449 -401114,151422 -122085,2406 -244419,530 -372874,530 25089,69395 53541,115575 129588,142045 930293,323226 1501158,968405 1652085,1942861 195868,1263994 -645391,2451941 -1896540,2694732 -834535,161967 -1562838,-70102 -2173904,-661634 -39103,-37687 -76153,-52514 -129092,-52267 -529463,1593 -1058890,3221 -1588211,107 -377121,-2124 -667862,-312681 -646771,-688387 10474,-187481 95368,-341167 242296,-467747 -153545,-135710 -242685,-301145 -243181,-505683 -743,-205245 84646,-372273 242827,-510955 -152696,-135073 -242190,-300260 -242827,-504869 -849,-205493 84151,-372520 254292,-521677 -22471,-14013 -45932,-22648 -61290,-38997 -190631,-201565 -244419,-435156 -147919,-696101 89742,-243286 327685,-407341 587852,-412543 122086,-2654 244454,-531 379138,-531 -142186,-244313 -147565,-484627 -142,-730886 -31176,-1416 -55416,-3504 -79869,-3504 -336461,-283 -672886,0 -1009312,-283 -350935,-212 -591886,-190913 -674125,-532293 -2761,-11112 -7892,-21622 -11749,-32344 0,-56407 0,-112991 0,-169540z"/>
  <path fill="#F26123" fill-rule="nonzero" d="M6664110 4805930c-2513,225806 -64440,500445 -193993,759267 -52585,105064 -124102,140416 -205634,100747 -81002,-39598 -98341,-120104 -48552,-223576 307232,-637075 180404,-1354408 -334302,-1833373 -104994,-97881 -237448,-166214 -354544,-251851 -38077,-27814 -78276,-62246 -97987,-103118 -25125,-52444 -2017,-106834 43668,-144698 50957,-42181 107506,-40554 165045,-12067 222196,109453 414101,258149 576988,444286 287131,328074 450549,764999 449311,1264383z"/>
  <path fill="#F26123" fill-rule="nonzero" d="M2993612 4672202c2265,-213845 63803,-488484 193886,-747023 53046,-105631 123572,-140310 205741,-100499 80895,39350 98341,119962 48410,223469 -307975,636686 -181395,1351719 334444,1832985 105135,98022 238085,165788 354685,251921 39422,28946 87619,67943 96855,110018 9130,40908 -15464,101066 -45189,136029 -42076,49577 -105489,42181 -162781,13871 -221842,-109735 -413959,-258326 -576882,-444533 -288122,-329844 -450549,-764257 -449169,-1276238z"/>
  <path fill="#F26123" fill-rule="nonzero" d="M5190022 3047931c1734,78029 -62033,142469 -142327,143955 -80506,1380 -146043,-60052 -147812,-138187 -1486,-78276 61680,-142362 142186,-143707 80541,-1521 146325,59663 147953,137939z"/>
  <path fill="#F26123" fill-rule="nonzero" d="M4613247 6580384c-80364,247 -145300,-62317 -145795,-140452 -389,-78170 64051,-141230 144698,-141478 80400,-247 145193,62176 145547,140346 248,78028 -64157,141336 -144450,141584z"/>
 </g>
</svg>
