<?xml version="1.0" encoding="UTF-8"?>
<!DOCTYPE svg PUBLIC "-//W3C//DTD SVG 1.1//EN" "http://www.w3.org/Graphics/SVG/1.1/DTD/svg11.dtd">
<!-- Creator: CorelDRAW X8 -->
<svg xmlns="http://www.w3.org/2000/svg" xml:space="preserve" width="250px" height="252px" version="1.1" shape-rendering="geometricPrecision" text-rendering="geometricPrecision" image-rendering="optimizeQuality" fill-rule="evenodd" clip-rule="evenodd"
viewBox="0 0 8479147 8549610"
 xmlns:xlink="http://www.w3.org/1999/xlink">
 <g id="Слой_x0020_1">
  <metadata id="CorelCorpID_0Corel-Layer"/>
  <path fill="#F26123" fill-rule="nonzero" d="M3061247 7529155c-670383,-671144 -1340365,-1341847 -2017718,-2019881 -234744,225130 -475256,455748 -719895,690332 691774,679316 1374775,1350019 2051968,2015073 236546,-236426 463519,-463238 685645,-685524zm-88730 -593550c155748,-105435 336332,-136360 528975,-135399 714207,3405 1428574,842 2142660,1563 194846,280 367979,-56083 520763,-179463 793643,-640900 1453731,-1395806 1956668,-2285550 61210,-108519 44105,-170129 -67259,-227654 -250407,-129590 -554973,-56122 -724702,178902 -76592,105836 -151061,213794 -217318,326038 -91855,156269 -218080,265389 -383963,339298 -176499,78435 -346388,171691 -513553,255774 24997,100908 54400,190199 68541,281934 45226,297035 -135399,505060 -434837,505340 -529817,721 -1059593,281 -1589410,161 -63894,0 -127747,3084 -191200,-1723 -89451,-6890 -150661,-74028 -151502,-157992 -721,-83923 60328,-151061 148938,-160675 29684,-3245 60088,-1562 90333,-1562 556655,0 1113271,160 1669927,-120 126906,0 156189,-33770 137922,-156310 -41661,-279649 -270596,-482467 -554533,-486673 -191040,-3004 -382400,-5248 -573320,401 -262825,7371 -503217,-56082 -724542,-198691 -135639,-87489 -286580,-126185 -448537,-124904 -201215,1803 -402470,-1001 -603685,1403 -205501,2683 -408439,44945 -568954,170570 -294511,230618 -572479,482186 -853010,721577 450260,449659 888462,887341 1335598,1333755zm218640 271317c42382,32809 90573,60209 126185,99066 118694,130431 123942,310775 1843,437120 -235185,243597 -474296,483709 -718774,718013 -134237,128909 -317826,113766 -458993,-24877 -514674,-504619 -1028667,-1010401 -1542901,-1515781 -160114,-157431 -321511,-313981 -480624,-472413 -159113,-158552 -156990,-345787 5368,-502656 224409,-216518 450219,-431593 675510,-647389 173093,-165763 347789,-164481 517799,5648 25837,25878 43503,59768 68820,95380 47190,-39138 75151,-61050 101750,-84644 228655,-202217 452783,-409520 686526,-605688 252370,-211830 550286,-314421 879409,-320910 204619,-3966 409239,-321 613739,-1162 220043,-961 425664,52878 610655,171451 169689,108640 351435,157832 552530,151743 180905,-5488 362211,280 543236,-1523 219201,-2002 416891,59327 586900,198972 38977,32047 68661,36574 114608,12859 196288,-101749 396101,-196448 591707,-299599 48031,-25317 92696,-66858 124503,-111363 99626,-138644 187515,-285899 288703,-423541 268634,-365736 765642,-467205 1159379,-241794 239231,137080 306810,398223 170410,639457 -524409,928320 -1211376,1717317 -2038788,2387018 -211831,171411 -453064,253532 -724542,253251 -727626,-440 -1455453,-1121 -2183080,1402 -84363,281 -168607,20631 -252690,31527 -6329,16824 -12859,33609 -19188,50433z"/>
  <path fill="#F26123" fill-rule="nonzero" d="M7493022 328962c-2041352,0 -4074492,0 -6104827,0 0,926919 0,1846907 0,2764612 2038948,0 4069564,0 6104827,0 0,-922793 0,-1840257 0,-2764612zm-3054196 3091892c-1049859,0 -2099397,0 -3149136,-121 -184991,0 -231619,-46628 -231619,-231339 0,-985965 0,-1971970 0,-2958055 0,-184991 46348,-231339 231339,-231339 2099437,0 4198874,0 6298271,0 185151,0 231779,46468 231779,231179 0,985965 0,1971970 0,2957935 0,184711 -46909,231619 -231499,231619 -1049578,121 -2099397,121 -3149135,121z"/>
  <path fill="#F26123" fill-rule="nonzero" d="M1459860 6422493c-721,133676 -128909,220563 -226132,157831 -108399,-70223 -207304,-157431 -300560,-247443 -56243,-54399 -49753,-130150 -161,-192482 48912,-61049 120978,-91013 186273,-45907 109080,75431 209147,164882 308613,253371 21912,19509 25717,59207 31967,74630z"/>
  <path fill="#F26123" fill-rule="nonzero" d="M6649345 1353664c-274883,-37735 -472012,-172253 -571638,-425664 -28001,-71224 -63332,-84203 -130431,-84083 -1025703,1722 -2051526,1162 -3077069,1162 -32648,0 -65016,0 -93257,0 -127066,306489 -175938,351314 -548604,510588 0,283616 0,568072 0,852409 11857,4687 20911,10175 30364,11577 230058,36053 402911,152343 517959,357124 12699,22913 59207,37575 90293,37575 1049137,1842 2098275,2123 3147573,-962 33209,0 70663,-31967 98624,-57404 95260,-86607 178943,-188356 283095,-261984 69662,-49593 166164,-61330 253091,-90733 0,-279650 0,-560742 0,-849605zm-2237359 -830537c573320,0 1146801,-120 1720281,0 159114,160 201776,38296 219722,193764 22193,194044 176820,321230 376913,309894 201535,-11297 245319,29283 245480,227413 0,362171 120,724222 -161,1086432 -280,167326 -65856,224409 -229496,201936 -162518,-22312 -315582,70384 -373347,226252 -57124,153785 -78715,169048 -240953,169048 -1129976,120 -2260113,120 -3390089,0 -153184,0 -179463,-18948 -233462,-165803 -59487,-162078 -210989,-252931 -380437,-228215 -150341,21752 -222406,-38296 -222847,-189798 -841,-375470 -721,-751101 0,-1126571 280,-144452 56403,-198851 201375,-199813 200975,-1282 341300,-124222 361209,-316704 14702,-141888 63293,-187555 205462,-187675 580130,-441 1160220,-160 1740350,-160z"/>
  <path fill="#F26123" fill-rule="nonzero" d="M4881154 1730977c160,-221445 -180304,-402470 -401629,-402590 -221565,-281 -402189,179743 -402590,401468 -280,221445 180024,402470 401348,402751 221285,280 402590,-180465 402871,-401629zm321791 12298c-5367,395980 -335772,715769 -734276,711282 -399946,-4526 -721177,-338616 -713525,-742087 7491,-395099 339858,-712524 739243,-705875 395660,6370 714087,337335 708558,736680z"/>
  <path fill="#F26123" fill-rule="nonzero" d="M2882905 1890250c-50153,-120 -101148,5368 -150621,-1402 -87047,-12017 -138082,-65736 -143450,-154626 -4927,-83363 57965,-157111 145854,-162078 103432,-5929 208145,-7491 311456,561 87489,6810 137923,65296 143451,153906 5087,82801 -58366,154185 -145854,162638 -53118,5248 -107117,1001 -160836,1001z"/>
  <path fill="#F26123" fill-rule="nonzero" d="M5947276 1570462c50154,0 100748,-3525 150621,681 89171,7651 150661,74629 151102,158592 400,83482 -60770,154587 -149660,159394 -100227,5648 -201255,5488 -301602,120 -89171,-4647 -150340,-74309 -150781,-158112 -400,-83963 60649,-151782 149539,-159834 49873,-4366 100307,-841 150781,-841z"/>
 </g>
</svg>
