<?xml version="1.0" encoding="UTF-8"?>
<svg width="52px" height="52px" viewBox="0 0 52 52" version="1.1" xmlns="http://www.w3.org/2000/svg" xmlns:xlink="http://www.w3.org/1999/xlink">
    <!-- Generator: Sketch 53.2 (72643) - https://sketchapp.com -->
    <title>Иммуноглобулин</title>
    <desc>Created with Sketch.</desc>
    <g id="Page-1" stroke="none" stroke-width="1" fill="none" fill-rule="evenodd">
        <g id="Icons" transform="translate(-88.000000, -725.000000)">
            <g id="Group-4" transform="translate(88.000000, 687.000000)">
                <g id="Иммуноглобулин" transform="translate(0.000000, 38.000000)">
                    <circle id="Oval-3" stroke-opacity="0.2" stroke="#814C9E" stroke-width="2" fill="#FFFFFF" cx="26" cy="26" r="25"></circle>
                    <g id="refresh" transform="translate(16.000000, 16.000000)">
                        <path d="M6.99998828,20 L13.0000117,20 C13.551967,20 13.9999766,19.5519904 13.9999766,19.0000352 L13.9999766,13.9999766 L19.0000352,13.9999766 C19.5519904,13.9999766 20,13.551967 20,13.0000117 L20,6.99998828 C20,6.448033 19.5519904,6.00002344 19.0000352,6.00002344 L13.9999766,6.00002344 L13.9999766,0.999964844 C13.9999766,0.448009563 13.551967,0 13.0000117,0 L6.99998828,0 C6.448033,0 6.00002344,0.448009563 6.00002344,0.999964844 L6.00002344,6.00002344 L0.999964844,6.00002344 C0.448009563,6.00002344 0,6.448033 0,6.99998828 L0,13.0000117 C0,13.551967 0.448009563,13.9999766 0.999964844,13.9999766 L6.00002344,13.9999766 L6.00002344,19.0000352 C6.00002344,19.5519904 6.448033,20 6.99998828,20 Z" id="Shape" stroke="#814C9E" stroke-width="2" fill-rule="nonzero"></path>
                        <circle id="Oval" fill="#FFFFFF" cx="17" cy="16.5" r="7"></circle>
                        <path d="M19.7357373,11 C19.5499771,11 19.3993944,11.1505828 19.3993944,11.3363429 L19.3993944,12.564969 C17.6678009,10.888536 14.9050672,10.9332714 13.2286342,12.6648452 C12.4385723,13.4809009 11.9978206,14.5728575 12.0000081,15.7087021 C12.0000081,15.8944623 12.1505909,16.045045 12.336351,16.045045 C12.5221111,16.045045 12.6726742,15.8944623 12.6726742,15.7087021 C12.6730881,13.6654195 14.3298138,12.0093243 16.3731162,12.0097382 C17.4108386,12.0099352 18.4007513,12.4459572 19.1014214,13.2114048 L17.611458,13.7081644 C17.4349997,13.7668722 17.3395182,13.9575 17.398226,14.1339583 C17.4569338,14.3104167 17.6475616,14.4058981 17.8240199,14.3471903 L19.8420379,13.6745242 C19.9797913,13.6286458 20.0725531,13.4995242 20.0720999,13.3543412 L20.0720999,11.3363232 C20.0720802,11.1505828 19.9214974,11 19.7357373,11 Z" id="Path" stroke="#814C9E" stroke-width="0.8" fill="#814C9E" fill-rule="nonzero"></path>
                        <path d="M20.4084034,15.3723789 C20.2226432,15.3723789 20.0720605,15.5229617 20.0720605,15.7087218 C20.0716466,17.7520045 18.4149208,19.4080997 16.3716185,19.4076858 C15.3338961,19.4074887 14.3439833,18.9714668 13.6433133,18.2060191 L15.1332767,17.7092596 C15.309735,17.6505518 15.4052164,17.459924 15.3465087,17.2834657 C15.2878009,17.1070073 15.0971731,17.0115259 14.9207147,17.0702337 L12.9026967,17.7428998 C12.7649434,17.7887782 12.6721815,17.9178998 12.6726348,18.0630828 L12.6726348,20.0811008 C12.6726348,20.2668609 12.8232176,20.4174437 13.0089777,20.4174437 C13.1947378,20.4174437 13.3453206,20.2668609 13.3453206,20.0811008 L13.3453206,18.852455 C15.0769141,20.528888 17.8396675,20.4841723 19.5160807,18.7525788 C20.3061427,17.9365231 20.7468944,16.8445664 20.7447069,15.7087218 C20.7447463,15.5229617 20.5941635,15.3723789 20.4084034,15.3723789 Z" id="Path" stroke="#814C9E" stroke-width="0.8" fill="#814C9E" fill-rule="nonzero"></path>
                    </g>
                </g>
            </g>
        </g>
    </g>
</svg>