<?xml version="1.0" encoding="UTF-8"?>
<svg width="52px" height="52px" viewBox="0 0 52 52" version="1.1" xmlns="http://www.w3.org/2000/svg" xmlns:xlink="http://www.w3.org/1999/xlink">
    <!-- Generator: Sketch 53.2 (72643) - https://sketchapp.com -->
    <title>hospital</title>
    <desc>Created with Sketch.</desc>
    <g id="Page-1" stroke="none" stroke-width="1" fill="none" fill-rule="evenodd">
        <g id="Icons" transform="translate(-149.000000, -431.000000)">
            <g id="hospital" transform="translate(149.000000, 431.000000)">
                <circle id="Oval-3-Copy-13" stroke-opacity="0.2" stroke="#814C9E" stroke-width="2" fill="#FFFFFF" cx="26" cy="26" r="25"></circle>
                <path d="M39.4999385,19.0000156 L31.9999453,19.0000156 L31.9999453,11.5000078 C31.9999453,11.224 31.7759458,11 31.4999385,11 L20.5000068,11 C20.2239996,11 20,11.224 20,11.5000078 L20,19.0000156 L12.5000068,19.0000156 C12.2239996,19.0000156 12,19.2240156 12,19.5000234 L12,38.5000469 C12,38.776 12.2239996,39 12.5000068,39 L20.5000068,39 L24,39 L28,39 L31.4999932,39 L39.4999932,39 C39.7760004,39 40,38.776 40,38.4999922 L40,19.5000234 C39.9999453,19.2240156 39.7759458,19.0000156 39.4999385,19.0000156 Z M19.125,37.1249844 L13.875,37.1249844 L13.875,20.4999844 L19.125,20.4999844 L19.125,37.1249844 Z M27.4999932,37.075 L24.8749932,37.075 L24.8749932,33.575 L27.4999932,33.575 L27.4999932,37.075 Z M30.6250137,19.6923477 L30.6250137,37.1250391 L28.4375256,37.1250391 L28.4375256,33.3558043 L29.3124921,33.3558043 L29.3124921,32.4134828 L27.9999706,32.4134828 L24.499961,32.4134828 L23.1874874,32.4134828 L23.1874874,33.3558043 L24.0625017,33.3558043 L24.0625017,37.1250391 L21.8750137,37.1250391 L21.8750137,19.6923477 L21.8750137,12.6250391 L30.6250137,12.6250391 L30.6250137,19.6923477 Z M38.1249316,37.1249844 L32.8749316,37.1249844 L32.8749316,20.4999844 L38.1249316,20.4999844 L38.1249316,37.1249844 Z" id="Shape" fill="#814C9E" fill-rule="nonzero"></path>
                <path d="M28.6428544,15.4285826 L27.5714174,15.4285826 L27.5714174,14.3571456 C27.5714174,14.1599988 27.4114187,14 27.2142718,14 L25.7857282,14 C25.5885813,14 25.4285826,14.1599988 25.4285826,14.3571456 L25.4285826,15.4285826 L24.3571456,15.4285826 C24.1599988,15.4285826 24,15.5885813 24,15.7857282 L24,17.2142718 C24,17.4114187 24.1599988,17.5714174 24.3571456,17.5714174 L25.4285826,17.5714174 L25.4285826,18.6428544 C25.4285826,18.8400012 25.5885813,19 25.7857282,19 L27.2142718,19 C27.4114187,19 27.5714174,18.8400012 27.5714174,18.6428544 L27.5714174,17.5714174 L28.6428544,17.5714174 C28.8400012,17.5714174 29,17.4114187 29,17.2142718 L29,15.7857282 C29,15.5885813 28.8400012,15.4285826 28.6428544,15.4285826 Z M28.1666667,16.8333188 L27.1666667,16.8333188 C26.9826643,16.8333188 26.8333333,16.9826514 26.8333333,17.1666557 L26.8333333,18.1666667 L26.1666667,18.1666667 L26.1666667,17.1666557 C26.1666667,16.9826514 26.0173357,16.8333188 25.8333333,16.8333188 L24.8333333,16.8333188 L24.8333333,16.1666812 L25.8333333,16.1666812 C26.0173357,16.1666812 26.1666667,16.0173486 26.1666667,15.8333443 L26.1666667,14.8333333 L26.8333333,14.8333333 L26.8333333,15.8333443 C26.8333333,16.0173486 26.9826643,16.1666812 27.1666667,16.1666812 L28.1666667,16.1666812 L28.1666667,16.8333188 L28.1666667,16.8333188 Z" id="Shape" fill="#814C9E" fill-rule="nonzero"></path>
            </g>
        </g>
    </g>
</svg>