<?xml version="1.0" encoding="UTF-8"?>
<svg width="52px" height="52px" viewBox="0 0 52 52" version="1.1" xmlns="http://www.w3.org/2000/svg" xmlns:xlink="http://www.w3.org/1999/xlink">
    <!-- Generator: Sketch 53.1 (72631) - https://sketchapp.com -->
    <title>полисом покрываются самые распространенные инфекции</title>
    <desc>Created with Sketch.</desc>
    <defs>
        <path d="M11.2353863,0.133706654 C10.8754972,0.306767552 10.7176088,0.908814151 10.7552127,1.1879604 L10.7552127,1.1879604 L10.7665421,2.76995211 L10.7665421,9.013344 C10.7665421,11.9800673 8.97866699,14.0516649 6.41870556,14.0516649 L6.41870556,14.0516649 C3.85970833,14.0516649 2.07255635,11.9798229 2.07255635,9.013344 L2.07255635,9.013344 L2.07255635,2.79024033 C2.08147523,2.78999589 2.07496686,2.10215215 2.06628902,2.10190771 L2.06628902,2.10190771 C2.06339641,2.10166328 2.06894058,1.20800418 2.06894058,1.20507094 L2.06894058,1.20507094 C2.07183319,0.549003922 2.04001446,0.597402309 1.96673496,0.482761686 L1.96673496,0.482761686 C1.92792576,0.42238592 1.82330963,0.313122896 1.60395324,0.174771952 L1.60395324,0.174771952 C1.34843919,0.0139328689 1.28070387,0 1.03651922,0.00073330889 L1.03651922,0.00073330889 C0.464987345,0.00219992667 0,0.472250925 0,1.05132051 L0,1.05132051 L0,9.013344 C0,12.7661745 2.22200795,15.5857471 5.4103893,16.0773085 L5.4103893,16.0773085 C5.71073882,19.3933313 8.4666747,22 11.8136676,22 L11.8136676,22 C15.3592865,22 18.2449078,19.0748308 18.2449078,15.4791729 L18.2449078,15.4791729 L18.2449078,12.0744197 C19.2698566,11.6693888 20,10.6610891 20,9.47997289 L20,9.47997289 C20,7.9439352 18.7677474,6.69559904 17.2534651,6.69559904 L17.2534651,6.69559904 C15.7387007,6.69559904 14.5071713,7.9439352 14.5071713,9.47997289 L14.5071713,9.47997289 C14.5071713,10.6258902 15.1941666,11.6119463 16.1718694,12.0379987 L16.1718694,12.0379987 L16.1718694,15.4791729 C16.1718694,17.9157139 14.2159817,19.8980923 11.8136676,19.8980923 L11.8136676,19.8980923 C9.60732795,19.8980923 7.78233096,18.224437 7.49885501,16.064109 L7.49885501,16.064109 C10.6496324,15.5427264 12.8390985,12.7378199 12.8390985,9.013344 L12.8390985,9.013344 L12.8390985,1.05132051 C12.8388574,0.472250925 12.3741111,0.0153994867 11.8033024,0.00073330889 L11.8033024,0.00073330889 C11.7885983,0.000244436297 11.7743763,0 11.7603953,0 L11.7603953,0 C11.5379053,0 11.4140051,0.0479095141 11.2353863,0.133706654 L11.2353863,0.133706654 Z" id="path-1"></path>
    </defs>
    <g id="Page-1" stroke="none" stroke-width="1" fill="none" fill-rule="evenodd">
        <g id="Icons" transform="translate(-647.000000, -977.000000)">
            <g id="полисом-покрываются-самые-распространенные-инфекции" transform="translate(647.000000, 977.000000)">
                <circle id="Oval-3-Copy-7" stroke-opacity="0.2" stroke="#814C9E" stroke-width="2" fill="#FFFFFF" cx="26" cy="26" r="25"></circle>
                <g id="Group-3" transform="translate(16.000000, 16.000000)">
                    <mask id="mask-2" fill="white">
                        <use xlink:href="#path-1"></use>
                    </mask>
                    <use id="Clip-2" stroke="#814C9E" stroke-width="2" xlink:href="#path-1"></use>
                    <polygon id="Fill-1" fill="#FFFFFF" mask="url(#mask-2)" points="-1 23 21 23 21 -1 -1 -1"></polygon>
                </g>
            </g>
        </g>
    </g>
</svg>