<?xml version="1.0" encoding="UTF-8"?>
<svg width="52px" height="52px" viewBox="0 0 52 52" version="1.1" xmlns="http://www.w3.org/2000/svg" xmlns:xlink="http://www.w3.org/1999/xlink">
    <!-- Generator: Sketch 52.6 (67491) - http://www.bohemiancoding.com/sketch -->
    <title>квартира</title>
    <desc>Created with Sketch.</desc>
    <g id="Public" stroke="none" stroke-width="1" fill="none" fill-rule="evenodd">
        <g id="Artboard" transform="translate(-156.000000, -156.000000)" stroke="#814C9E">
            <g id="квартира" transform="translate(156.000000, 156.000000)">
                <circle id="Oval-3" stroke-opacity="0.2" stroke-width="2" fill="#FFFFFF" cx="26" cy="26" r="25"></circle>
                <g id="bell" transform="translate(15.000000, 14.000000)">
                    <g id="building">
                        <g id="Building-2" transform="translate(2.052632, 2.086957)" stroke-linecap="round" stroke-linejoin="round" stroke-width="2">
                            <path d="M17.8947368,0 L17.8947368,18.7826087 C17.8947368,20.5043478 16.4736842,21.9130435 14.7368421,21.9130435 L3.15789474,21.9130435 C1.42105263,21.9130435 0,20.5043478 0,18.7826087 L0,0" id="Shape"></path>
                        </g>
                        <rect id="Rectangle-path" stroke-linecap="round" stroke-linejoin="round" x="9.94736842" y="5.2173913" width="2.10526316" height="4.17391304"></rect>
                        <rect id="Rectangle-path" stroke-linecap="round" stroke-linejoin="round" x="9.94736842" y="12.5217391" width="2.10526316" height="4.17391304"></rect>
                        <rect id="Rectangle-path" stroke-linecap="round" stroke-linejoin="round" x="5.21052632" y="5.2173913" width="2.10526316" height="4.17391304"></rect>
                        <rect id="Rectangle-path" stroke-linecap="round" stroke-linejoin="round" x="14.6842105" y="5.2173913" width="2.10526316" height="4.17391304"></rect>
                        <rect id="Rectangle-path" stroke-linecap="round" stroke-linejoin="round" x="5.21052632" y="12.5217391" width="2.10526316" height="4.17391304"></rect>
                        <rect id="Rectangle-path" stroke-linecap="round" stroke-linejoin="round" x="14.6842105" y="12.5217391" width="2.10526316" height="4.17391304"></rect>
                        <polyline id="Shape" stroke-width="2" stroke-linecap="round" stroke-linejoin="round" points="8.89473684 24 8.89473684 19.826087 13.1052632 19.826087 13.1052632 24"></polyline>
                        <rect id="Rectangle-path" stroke-width="2" x="1" y="1" width="20" height="1.08695652"></rect>
                    </g>
                </g>
            </g>
        </g>
    </g>
</svg>