<?xml version="1.0" encoding="UTF-8"?>
<svg width="52px" height="52px" viewBox="0 0 52 52" version="1.1" xmlns="http://www.w3.org/2000/svg" xmlns:xlink="http://www.w3.org/1999/xlink">
    <!-- Generator: Sketch 53.2 (72643) - https://sketchapp.com -->
    <title>house</title>
    <desc>Created with Sketch.</desc>
    <g id="Page-1" stroke="none" stroke-width="1" fill="none" fill-rule="evenodd">
        <g id="Icons" transform="translate(-232.000000, -912.000000)">
            <g id="house" transform="translate(232.000000, 912.000000)">
                <circle id="Oval-3" stroke-opacity="0.2" stroke="#814C9E" stroke-width="2" fill="#FFFFFF" cx="26" cy="26" r="25"></circle>
                <path d="M39.1385684,21.4375394 L27.6015223,11.5963862 C26.6735006,10.8013961 25.3265347,10.8013961 24.3999351,11.5952377 L12.8600997,21.4386878 C11.8293656,22.3218339 11.7058153,23.8729313 12.5936927,24.9090926 C13.2730824,25.7000904 14.351563,25.9524179 15.2818818,25.6254969 L15.2818818,38.1797991 C15.2818818,38.6327744 15.6491416,39 16.1021593,39 L35.8978761,39 C36.3508937,39 36.7181536,38.6327744 36.7181536,38.1797991 L36.7181536,25.6263172 C37.6749982,25.9646679 38.7423215,25.6828639 39.4069443,24.9083269 C40.2894071,23.8785641 40.1765219,22.3267558 39.1385684,21.4375394 Z M35.0775986,37.3595435 L16.9223821,37.3595435 L16.9223821,24.4426641 L26.0000177,16.7028178 L35.0775986,24.4426641 L35.0775986,37.3595435 Z M38.1615423,23.8406111 C37.8728755,24.1770477 37.3567428,24.2318444 37.0028825,23.928439 C36.887919,23.8303845 27.1365817,15.5161569 26.53223,15.0008926 C26.2255694,14.7394871 25.774466,14.7394324 25.4677507,15.0008926 C24.6998138,15.6556643 15.3105953,23.6612365 14.9966059,23.9289858 C14.6524809,24.222985 14.1329026,24.1832273 13.8389306,23.8410486 C13.5399269,23.4920886 13.5885485,22.9748009 13.9262745,22.6855048 L25.4658911,12.8421094 C25.7753958,12.5769304 26.2246396,12.5769851 26.5354022,12.8432578 L38.072503,22.6843564 C38.4171748,22.9796134 38.4557877,23.4972292 38.1615423,23.8406111 Z" id="Shape" fill="#814C9E" fill-rule="nonzero"></path>
                <path d="M31.9100237,26.7928314 C32.1771188,26.4049941 32.3332531,25.9387116 32.3332531,25.4374865 C32.3332531,24.093464 31.2117536,23 29.8332716,23 C28.4547896,23 27.3332901,24.093464 27.3332901,25.4374865 C27.3332901,25.9382241 27.4891465,26.4039648 27.755686,26.7915312 C27.2708364,27.0635429 26.8421062,27.4303604 26.4999444,27.8745395 C26.1578382,27.4303604 25.7290525,27.0635429 25.2442028,26.7915312 C25.5107979,26.4039648 25.6665988,25.9381699 25.6665988,25.4374865 C25.6665988,24.093464 24.5450993,23 23.1666173,23 C21.7881353,23 20.6666358,24.093464 20.6666358,25.4374865 C20.6666358,25.9387658 20.82277,26.4049941 21.0898652,26.7928314 C19.8420692,27.4954785 19,28.8094339 19,30.3124594 L19,31.9374865 C19,32.3862163 19.3731108,32.739165 19.8333457,32.739165 L23.168951,32.739165 C22.6445955,33.4186253 22.3333272,34.273666 22.3333272,35.1874865 C22.3333272,35.6362163 22.706438,36 23.1666728,36 L29.8333272,36 C30.293562,36 30.6666728,35.6362163 30.6666728,35.1874865 C30.6666728,34.273666 30.3554045,33.4294603 29.831049,32.75 L33.1666543,32.75 C33.6268892,32.75 34,32.3862163 34,31.9374865 L34,30.3124594 C33.9999444,28.8094881 33.1577641,27.4954785 31.9100237,26.7928314 Z M29.8333455,24 C30.5685613,24 31.166691,24.5831775 31.166691,25.3000143 C31.166691,26.016851 30.5685613,26.6000285 29.8333455,26.6000285 C29.0981297,26.6000285 28.5,26.016851 28.5,25.3000143 C28.5,24.5831775 29.0981297,24 29.8333455,24 Z M26.6333455,29 C27.3685613,29 27.966691,29.5831775 27.966691,30.3000143 C27.966691,31.016851 27.3685613,31.5999419 26.6333455,31.5999419 C25.8981297,31.5999419 25.3,31.0167644 25.3,30.2999276 C25.3,29.5830908 25.8981297,29 26.6333455,29 Z M23.1333455,24 C23.8685613,24 24.466691,24.5831775 24.466691,25.3000143 C24.466691,26.016851 23.8685613,26.6000285 23.1333455,26.6000285 C22.3981297,26.6000285 21.8,26.016851 21.8,25.3000143 C21.8,24.5831775 22.3981297,24 23.1333455,24 Z M20,31.5298016 L20,30.5223344 C20,28.8558286 21.3905909,27.5 23.0998244,27.5 C23.8740055,27.5 24.6071935,27.7821956 25.167729,28.2709495 C24.5332685,28.8247945 24.1331222,29.6287262 24.1331222,30.5223344 C24.1331222,30.8754652 24.1961618,31.2144223 24.3108731,31.5298016 L20,31.5298016 Z M23.15,34.8439114 C23.646093,33.4797293 24.9829794,32.5 26.5500401,32.5 C28.1171008,32.5 29.453907,33.4796512 29.95,34.8439114 L23.15,34.8439114 Z M33.167729,31.5298016 L28.8568559,31.5298016 C28.9715672,31.2144895 29.0346068,30.8754652 29.0346068,30.5223344 C29.0346068,29.6287262 28.6344605,28.8247945 28,28.2709495 C28.5605355,27.7821956 29.2936546,27.5 30.0679046,27.5 C31.7771381,27.5 33.167729,28.8558286 33.167729,30.5223344 L33.167729,31.5298016 Z" id="Shape" fill="#814C9E" fill-rule="nonzero"></path>
            </g>
        </g>
    </g>
</svg>