<?xml version="1.0" encoding="UTF-8"?>
<svg width="52px" height="52px" viewBox="0 0 52 52" version="1.1" xmlns="http://www.w3.org/2000/svg" xmlns:xlink="http://www.w3.org/1999/xlink">
    <!-- Generator: Sketch 53.2 (72643) - https://sketchapp.com -->
    <title>brick-wall</title>
    <desc>Created with Sketch.</desc>
    <g id="Page-1" stroke="none" stroke-width="1" fill="none" fill-rule="evenodd">
        <g id="Icons" transform="translate(-88.000000, -912.000000)">
            <g id="brick-wall" transform="translate(88.000000, 912.000000)">
                <circle id="Oval-3" stroke-opacity="0.2" stroke="#814C9E" stroke-width="2" fill="#FFFFFF" cx="26" cy="26" r="25"></circle>
                <path d="M38.8333333,12 L13.1666667,12 C12.5226644,12 12,12.5133311 12,13.1458333 L12,38.3541667 C12,38.9866689 12.5226644,39.5 13.1666667,39.5 L38.8333333,39.5 C39.4773356,39.5 40,38.9866689 40,38.3541667 L40,13.1458333 C40,12.5133311 39.4773356,12 38.8333333,12 Z M31.75,20.2 L31.75,25.2 L20.75,25.2 L20.75,20.2 L31.75,20.2 Z M37.6666667,20.2 L37.6666667,25.2 L32.6666667,25.2 L32.6666667,20.2 L37.6666667,20.2 Z M19.3333333,25.2 L14.3333333,25.2 L14.3333333,20.2 L19.3333333,20.2 L19.3333333,25.2 Z M14.3333333,26.25 L25.3333333,26.25 L25.3333333,31.25 L14.3333333,31.25 L14.3333333,26.25 Z M31.75,32.35 L31.75,37.35 L20.75,37.35 L20.75,32.35 L31.75,32.35 Z M26.6666667,31.25 L26.6666667,26.25 L37.6666667,26.25 L37.6666667,31.25 L26.6666667,31.25 Z M37.6666667,19.1 L26.6666667,19.1 L26.6666667,14.1 L37.6666667,14.1 L37.6666667,19.1 Z M25.3333333,14.1 L25.3333333,19.1 L14.3333333,19.1 L14.3333333,14.1 L25.3333333,14.1 Z M14.3333333,32.35 L19.3333333,32.35 L19.3333333,37.35 L14.3333333,37.35 L14.3333333,32.35 Z M32.6666667,37.35 L32.6666667,32.35 L37.6666667,32.35 L37.6666667,37.35 L32.6666667,37.35 Z" id="Shape" fill="#814C9E" fill-rule="nonzero"></path>
            </g>
        </g>
    </g>
</svg>