<?xml version="1.0" encoding="UTF-8"?>
<svg width="52px" height="52px" viewBox="0 0 52 52" version="1.1" xmlns="http://www.w3.org/2000/svg" xmlns:xlink="http://www.w3.org/1999/xlink">
    <!-- Generator: Sketch 52.6 (67491) - http://www.bohemiancoding.com/sketch -->
    <title>диван</title>
    <desc>Created with Sketch.</desc>
    <g id="Public" stroke="none" stroke-width="1" fill="none" fill-rule="evenodd">
        <g id="Artboard" transform="translate(-52.000000, -52.000000)" stroke="#814C9E" stroke-width="2">
            <g id="диван" transform="translate(52.000000, 52.000000)">
                <circle id="Oval-3-Copy" stroke-opacity="0.2" fill="#FFFFFF" cx="26" cy="26" r="25"></circle>
                <g id="Group" transform="translate(13.000000, 16.000000)">
                    <path d="M1,18 L25.0049355,18 C25.0049355,12.4273253 25.0049355,12.2529117 25.0049355,8.99798431 C25.0049355,8.32576484 22.0354873,8.33413053 22.0354873,9.0259847 C22.0354873,9.9000588 22.0354873,9.9000588 22.0354873,12.9813221 L22.0354873,13.9813221 L3.99779134,13.9813221 L3.99779134,12.9813221 C3.99779134,10.2983803 3.99779134,10.2983803 3.99779134,8.99798431 C3.99779134,8.81706877 3.4251261,8.514973 2.49889567,8.514973 C1.57266524,8.514973 1,8.81706877 1,8.99798431 C1,12.2598249 1,12.434821 1,18 Z" id="Path-7"></path>
                    <path d="M3,6.04666492 C5.24814826,6.26412512 6.56075256,7.22191852 6.56075256,9.00457039 C6.56075256,10.4001105 6.56075256,10.7745437 6.56075256,11.4952887 L20.5722918,11.4952887 L20.5722918,12.4952887 L19.5722918,12.4952887 C19.5722918,10.9149613 19.5722918,10.9149613 19.5722918,9.00457039 C19.5722918,7.24101834 20.8291672,6.27469859 22.9731087,6.04987611 C22.9731087,5.43796234 22.9731087,4.89269824 22.9731087,3.1387173 C22.8990005,3.07809199 22.7754629,3.0030248 22.6054531,2.92354676 C22.1115549,2.69265383 21.3439898,2.47773822 20.3605288,2.29851801 C18.4227287,1.94538456 15.7619239,1.75053586 12.9860967,1.74926571 C10.2082849,1.74799465 7.54852808,1.94065705 5.61228934,2.2929153 C4.62912262,2.47178198 3.86207799,2.68674984 3.36872379,2.91809796 C3.19768225,2.9983043 3.07380305,3.07405254 3,3.13511363 C3,4.89007566 3,5.44253552 3,6.04666492 Z M23.0072309,3.16579356 C23.009703,3.17036539 23.0117952,3.1734487 23.0132559,3.17493439 C23.0085969,3.1701956 23.0035541,3.16532989 22.9981294,3.16034399 Z M2.96371921,3.16791163 C2.96300116,3.1686336 2.96229177,3.16935273 2.96159106,3.17006899 C2.96302317,3.16860511 2.96519924,3.16527819 2.9678023,3.1602304 Z" id="Path-8"></path>
                </g>
            </g>
        </g>
    </g>
</svg>